<?xml version="1.0" encoding="utf-8"?>
<!-- Generator: Adobe Illustrator 23.0.3, SVG Export Plug-In . SVG Version: 6.00 Build 0)  -->
<svg version="1.1" id="Layer_1" xmlns="http://www.w3.org/2000/svg" xmlns:xlink="http://www.w3.org/1999/xlink" x="0px" y="0px"
	 viewBox="0 0 533 533" style="enable-background:new 0 0 533 533;" xml:space="preserve">
<style type="text/css">
	.st0{fill:url(#SVGID_1_);}
</style>
<linearGradient id="SVGID_1_" gradientUnits="userSpaceOnUse" x1="15.99" y1="261.8779" x2="515.6776" y2="261.8779">
	<stop  offset="0.2261" style="stop-color:#281214"/>
	<stop  offset="1" style="stop-color:#E9213B"/>
</linearGradient>
<path class="st0" d="M515.7,148.8c0-34.5-28-62.5-62.5-62.5H78.5c-34.5,0-62.5,28-62.5,62.5v226.1c0,34.5,28,62.5,62.5,62.5h374.8
	c34.5,0,62.5-28,62.5-62.5V148.8z M78.5,111.3h374.8c20.7,0,37.5,17.4,37.5,38v3.2H41v-3.2C41,128.7,57.8,111.3,78.5,111.3z
	 M490.7,177.6v43.7H41v-43.7H490.7z M453.2,413.7H78.5c-20.7,0-37.5-17.4-37.5-38V246.3h449.7v129.4
	C490.7,396.3,473.9,413.7,453.2,413.7z M183.9,275.5c-9.4,0-18.5,2.4-26.7,7.1c-22.6-12.9-51.2-7.8-67.9,12.2
	c-16.7,20-16.7,49.1,0,69c16.7,20,45.3,25.1,67.9,12.2c19.6,11.2,44.1,9,61.4-5.6c17.3-14.6,23.6-38.4,15.8-59.6
	C226.6,289.6,206.4,275.5,183.9,275.5z M155.1,329.3c0-3.7,0.7-7.4,2.1-10.9c2.8,7,2.8,14.8,0,21.7
	C155.8,336.7,155.1,333,155.1,329.3L155.1,329.3z M101.7,329.3c0-8.9,4.1-17.4,11.2-22.8c7.1-5.4,16.3-7.3,24.9-5
	c-10.4,17.1-10.4,38.6,0,55.7c-8.6,2.3-17.8,0.4-24.9-5C105.9,346.6,101.7,338.2,101.7,329.3z M183.9,358.1c-2.5,0-4.9-0.3-7.3-1
	c10.4-17.1,10.4-38.6,0-55.7c10.8-2.8,22.3,0.8,29.4,9.4c7.2,8.6,8.7,20.5,4,30.6C205.2,351.6,195,358.1,183.9,358.1z"/>
</svg>
